<?xml version="1.0" encoding="us-ascii" standalone="no"?><svg xmlns="http://www.w3.org/2000/svg" xmlns:xlink="http://www.w3.org/1999/xlink" contentStyleType="text/css" height="512px" preserveAspectRatio="none" style="width:852px;height:512px;background:#FFFFFF;" version="1.1" viewBox="0 0 852 512" width="852px" zoomAndPan="magnify"><defs/><g><!--class Example--><g id="elem_Example"><rect codeLine="3" fill="#F1F1F1" height="96.8906" id="Example" rx="2.5" ry="2.5" style="stroke:#181818;stroke-width:0.5;" width="183" x="7" y="96.5"/><ellipse cx="63.25" cy="112.5" fill="#ADD1B2" rx="11" ry="11" style="stroke:#181818;stroke-width:1.0;"/><path d="M62.0469,113.375 L63.5,113.375 L63.5,113.4844 C63.5,113.8906 63.5313,114.0469 63.6094,114.2031 C63.7656,114.4531 64.0469,114.6094 64.3438,114.6094 C64.5938,114.6094 64.8594,114.4688 65.0156,114.25 C65.1406,114.0938 65.1719,113.9375 65.1719,113.4844 L65.1719,111.5625 C65.1719,111.4063 65.1719,111.3594 65.1563,111.2031 C65.0938,110.7344 64.7813,110.4219 64.3281,110.4219 C64.0781,110.4219 63.8125,110.5625 63.6406,110.7813 C63.5313,110.9531 63.5,111.1094 63.5,111.5625 L63.5,111.6875 L62.0469,111.6875 L62.0469,109.2813 L66.0313,109.2813 L66.0313,110.1406 C66.0313,110.5469 66.0625,110.7188 66.1406,110.875 C66.3125,111.125 66.5938,111.2813 66.875,111.2813 C67.1406,111.2813 67.4063,111.1406 67.5781,110.9219 C67.6875,110.75 67.7188,110.6094 67.7188,110.1406 L67.7188,107.5938 L60.0938,107.5938 C59.6563,107.5938 59.5313,107.6094 59.375,107.7031 C59.125,107.8594 58.9688,108.1563 58.9688,108.4375 C58.9688,108.7188 59.1094,108.9688 59.3281,109.1406 C59.4844,109.25 59.6719,109.2813 60.0938,109.2813 L60.3438,109.2813 L60.3438,115.7969 L60.0938,115.7969 C59.6875,115.7969 59.5313,115.8125 59.375,115.9219 C59.125,116.0938 58.9688,116.3594 58.9688,116.6563 C58.9688,116.9219 59.1094,117.1719 59.3281,117.3281 C59.4688,117.4531 59.7031,117.5 60.0938,117.5 L68.0938,117.5 L68.0938,114.9219 C68.0938,114.4844 68.0625,114.3438 67.9844,114.1875 C67.8125,113.9375 67.5313,113.7813 67.25,113.7813 C66.9844,113.7813 66.7188,113.8906 66.5469,114.1406 C66.4375,114.2969 66.4063,114.4375 66.4063,114.9219 L66.4063,115.7969 L62.0469,115.7969 L62.0469,113.375 Z " fill="#000000"/><text fill="#000000" font-family="sans-serif" font-size="14" lengthAdjust="spacing" textLength="62" x="83.75" y="117.3467">Example</text><line style="stroke:#181818;stroke-width:0.5;" x1="8" x2="189" y1="128.5" y2="128.5"/><ellipse cx="18" cy="142.1484" fill="#000000" rx="3" ry="3" style="stroke:#000000;stroke-width:1.0;"/><text fill="#000000" font-family="sans-serif" font-size="14" lengthAdjust="spacing" textLength="66" x="27" y="145.4951">id: String</text><ellipse cx="18" cy="158.4453" fill="#000000" rx="3" ry="3" style="stroke:#000000;stroke-width:1.0;"/><text fill="#000000" font-family="sans-serif" font-size="14" lengthAdjust="spacing" textLength="153" x="27" y="161.792">createdAt: DateTime</text><ellipse cx="18" cy="174.7422" fill="#000000" rx="3" ry="3" style="stroke:#000000;stroke-width:1.0;"/><text fill="#000000" font-family="sans-serif" font-size="14" lengthAdjust="spacing" textLength="157" x="27" y="178.0889">updatedAt: DateTime</text><line style="stroke:#181818;stroke-width:0.5;" x1="8" x2="189" y1="185.3906" y2="185.3906"/></g><!--class Account--><g id="elem_Account"><rect codeLine="9" fill="#F1F1F1" height="276.1563" id="Account" rx="2.5" ry="2.5" style="stroke:#181818;stroke-width:0.5;" width="212" x="225.5" y="7"/><ellipse cx="297.75" cy="23" fill="#ADD1B2" rx="11" ry="11" style="stroke:#181818;stroke-width:1.0;"/><path d="M296.5469,23.875 L298,23.875 L298,23.9844 C298,24.3906 298.0313,24.5469 298.1094,24.7031 C298.2656,24.9531 298.5469,25.1094 298.8438,25.1094 C299.0938,25.1094 299.3594,24.9688 299.5156,24.75 C299.6406,24.5938 299.6719,24.4375 299.6719,23.9844 L299.6719,22.0625 C299.6719,21.9063 299.6719,21.8594 299.6563,21.7031 C299.5938,21.2344 299.2813,20.9219 298.8281,20.9219 C298.5781,20.9219 298.3125,21.0625 298.1406,21.2813 C298.0313,21.4531 298,21.6094 298,22.0625 L298,22.1875 L296.5469,22.1875 L296.5469,19.7813 L300.5313,19.7813 L300.5313,20.6406 C300.5313,21.0469 300.5625,21.2188 300.6406,21.375 C300.8125,21.625 301.0938,21.7813 301.375,21.7813 C301.6406,21.7813 301.9063,21.6406 302.0781,21.4219 C302.1875,21.25 302.2188,21.1094 302.2188,20.6406 L302.2188,18.0938 L294.5938,18.0938 C294.1563,18.0938 294.0313,18.1094 293.875,18.2031 C293.625,18.3594 293.4688,18.6563 293.4688,18.9375 C293.4688,19.2188 293.6094,19.4688 293.8281,19.6406 C293.9844,19.75 294.1719,19.7813 294.5938,19.7813 L294.8438,19.7813 L294.8438,26.2969 L294.5938,26.2969 C294.1875,26.2969 294.0313,26.3125 293.875,26.4219 C293.625,26.5938 293.4688,26.8594 293.4688,27.1563 C293.4688,27.4219 293.6094,27.6719 293.8281,27.8281 C293.9688,27.9531 294.2031,28 294.5938,28 L302.5938,28 L302.5938,25.4219 C302.5938,24.9844 302.5625,24.8438 302.4844,24.6875 C302.3125,24.4375 302.0313,24.2813 301.75,24.2813 C301.4844,24.2813 301.2188,24.3906 301.0469,24.6406 C300.9375,24.7969 300.9063,24.9375 300.9063,25.4219 L300.9063,26.2969 L296.5469,26.2969 L296.5469,23.875 Z " fill="#000000"/><text fill="#000000" font-family="sans-serif" font-size="14" lengthAdjust="spacing" textLength="59" x="318.25" y="27.8467">Account</text><line style="stroke:#181818;stroke-width:0.5;" x1="226.5" x2="436.5" y1="39" y2="39"/><ellipse cx="236.5" cy="52.6484" fill="#000000" rx="3" ry="3" style="stroke:#000000;stroke-width:1.0;"/><text fill="#000000" font-family="sans-serif" font-size="14" lengthAdjust="spacing" textLength="66" x="245.5" y="55.9951">id: String</text><ellipse cx="236.5" cy="68.9453" fill="#000000" rx="3" ry="3" style="stroke:#000000;stroke-width:1.0;"/><text fill="#000000" font-family="sans-serif" font-size="14" lengthAdjust="spacing" textLength="96" x="245.5" y="72.292">userId: String</text><ellipse cx="236.5" cy="85.2422" fill="#000000" rx="3" ry="3" style="stroke:#000000;stroke-width:1.0;"/><text fill="#000000" font-family="sans-serif" font-size="14" lengthAdjust="spacing" textLength="87" x="245.5" y="88.5889">type: String</text><ellipse cx="236.5" cy="101.5391" fill="#000000" rx="3" ry="3" style="stroke:#000000;stroke-width:1.0;"/><text fill="#000000" font-family="sans-serif" font-size="14" lengthAdjust="spacing" textLength="114" x="245.5" y="104.8857">provider: String</text><ellipse cx="236.5" cy="117.8359" fill="#000000" rx="3" ry="3" style="stroke:#000000;stroke-width:1.0;"/><text fill="#000000" font-family="sans-serif" font-size="14" lengthAdjust="spacing" textLength="186" x="245.5" y="121.1826">providerAccountId: String</text><text fill="#000000" font-family="sans-serif" font-size="14" lengthAdjust="spacing" textLength="162" x="245.5" y="137.4795">refresh_token: String?</text><text fill="#000000" font-family="sans-serif" font-size="14" lengthAdjust="spacing" textLength="157" x="245.5" y="153.7764">access_token: String?</text><text fill="#000000" font-family="sans-serif" font-size="14" lengthAdjust="spacing" textLength="111" x="245.5" y="170.0732">expires_at: Int?</text><text fill="#000000" font-family="sans-serif" font-size="14" lengthAdjust="spacing" textLength="144" x="245.5" y="186.3701">token_type: String?</text><text fill="#000000" font-family="sans-serif" font-size="14" lengthAdjust="spacing" textLength="103" x="245.5" y="202.667">scope: String?</text><text fill="#000000" font-family="sans-serif" font-size="14" lengthAdjust="spacing" textLength="123" x="245.5" y="218.9639">id_token: String?</text><text fill="#000000" font-family="sans-serif" font-size="14" lengthAdjust="spacing" textLength="157" x="245.5" y="235.2607">session_state: String?</text><text fill="#000000" font-family="sans-serif" font-size="14" lengthAdjust="spacing" textLength="140" x="245.5" y="251.5576">ext_expires_in: Int?</text><ellipse cx="236.5" cy="264.5078" fill="#000000" rx="3" ry="3" style="stroke:#000000;stroke-width:1.0;"/><text fill="#000000" font-family="sans-serif" font-size="14" lengthAdjust="spacing" textLength="70" x="245.5" y="267.8545">user: User</text><line style="stroke:#181818;stroke-width:0.5;" x1="226.5" x2="436.5" y1="275.1563" y2="275.1563"/></g><!--class Session--><g id="elem_Session"><rect codeLine="26" fill="#F1F1F1" height="129.4844" id="Session" rx="2.5" ry="2.5" style="stroke:#181818;stroke-width:0.5;" width="176" x="472.5" y="80.5"/><ellipse cx="529.25" cy="96.5" fill="#ADD1B2" rx="11" ry="11" style="stroke:#181818;stroke-width:1.0;"/><path d="M528.0469,97.375 L529.5,97.375 L529.5,97.4844 C529.5,97.8906 529.5313,98.0469 529.6094,98.2031 C529.7656,98.4531 530.0469,98.6094 530.3438,98.6094 C530.5938,98.6094 530.8594,98.4688 531.0156,98.25 C531.1406,98.0938 531.1719,97.9375 531.1719,97.4844 L531.1719,95.5625 C531.1719,95.4063 531.1719,95.3594 531.1563,95.2031 C531.0938,94.7344 530.7813,94.4219 530.3281,94.4219 C530.0781,94.4219 529.8125,94.5625 529.6406,94.7813 C529.5313,94.9531 529.5,95.1094 529.5,95.5625 L529.5,95.6875 L528.0469,95.6875 L528.0469,93.2813 L532.0313,93.2813 L532.0313,94.1406 C532.0313,94.5469 532.0625,94.7188 532.1406,94.875 C532.3125,95.125 532.5938,95.2813 532.875,95.2813 C533.1406,95.2813 533.4063,95.1406 533.5781,94.9219 C533.6875,94.75 533.7188,94.6094 533.7188,94.1406 L533.7188,91.5938 L526.0938,91.5938 C525.6563,91.5938 525.5313,91.6094 525.375,91.7031 C525.125,91.8594 524.9688,92.1563 524.9688,92.4375 C524.9688,92.7188 525.1094,92.9688 525.3281,93.1406 C525.4844,93.25 525.6719,93.2813 526.0938,93.2813 L526.3438,93.2813 L526.3438,99.7969 L526.0938,99.7969 C525.6875,99.7969 525.5313,99.8125 525.375,99.9219 C525.125,100.0938 524.9688,100.3594 524.9688,100.6563 C524.9688,100.9219 525.1094,101.1719 525.3281,101.3281 C525.4688,101.4531 525.7031,101.5 526.0938,101.5 L534.0938,101.5 L534.0938,98.9219 C534.0938,98.4844 534.0625,98.3438 533.9844,98.1875 C533.8125,97.9375 533.5313,97.7813 533.25,97.7813 C532.9844,97.7813 532.7188,97.8906 532.5469,98.1406 C532.4375,98.2969 532.4063,98.4375 532.4063,98.9219 L532.4063,99.7969 L528.0469,99.7969 L528.0469,97.375 Z " fill="#000000"/><text fill="#000000" font-family="sans-serif" font-size="14" lengthAdjust="spacing" textLength="54" x="549.75" y="101.3467">Session</text><line style="stroke:#181818;stroke-width:0.5;" x1="473.5" x2="647.5" y1="112.5" y2="112.5"/><ellipse cx="483.5" cy="126.1484" fill="#000000" rx="3" ry="3" style="stroke:#000000;stroke-width:1.0;"/><text fill="#000000" font-family="sans-serif" font-size="14" lengthAdjust="spacing" textLength="66" x="492.5" y="129.4951">id: String</text><ellipse cx="483.5" cy="142.4453" fill="#000000" rx="3" ry="3" style="stroke:#000000;stroke-width:1.0;"/><text fill="#000000" font-family="sans-serif" font-size="14" lengthAdjust="spacing" textLength="150" x="492.5" y="145.792">sessionToken: String</text><ellipse cx="483.5" cy="158.7422" fill="#000000" rx="3" ry="3" style="stroke:#000000;stroke-width:1.0;"/><text fill="#000000" font-family="sans-serif" font-size="14" lengthAdjust="spacing" textLength="96" x="492.5" y="162.0889">userId: String</text><ellipse cx="483.5" cy="175.0391" fill="#000000" rx="3" ry="3" style="stroke:#000000;stroke-width:1.0;"/><text fill="#000000" font-family="sans-serif" font-size="14" lengthAdjust="spacing" textLength="133" x="492.5" y="178.3857">expires: DateTime</text><ellipse cx="483.5" cy="191.3359" fill="#000000" rx="3" ry="3" style="stroke:#000000;stroke-width:1.0;"/><text fill="#000000" font-family="sans-serif" font-size="14" lengthAdjust="spacing" textLength="70" x="492.5" y="194.6826">user: User</text><line style="stroke:#181818;stroke-width:0.5;" x1="473.5" x2="647.5" y1="201.9844" y2="201.9844"/></g><!--class User--><g id="elem_User"><rect codeLine="34" fill="#F1F1F1" height="162.0781" id="User" rx="2.5" ry="2.5" style="stroke:#181818;stroke-width:0.5;" width="209" x="227" y="343"/><ellipse cx="311.75" cy="359" fill="#ADD1B2" rx="11" ry="11" style="stroke:#181818;stroke-width:1.0;"/><path d="M310.5469,359.875 L312,359.875 L312,359.9844 C312,360.3906 312.0313,360.5469 312.1094,360.7031 C312.2656,360.9531 312.5469,361.1094 312.8438,361.1094 C313.0938,361.1094 313.3594,360.9688 313.5156,360.75 C313.6406,360.5938 313.6719,360.4375 313.6719,359.9844 L313.6719,358.0625 C313.6719,357.9063 313.6719,357.8594 313.6563,357.7031 C313.5938,357.2344 313.2813,356.9219 312.8281,356.9219 C312.5781,356.9219 312.3125,357.0625 312.1406,357.2813 C312.0313,357.4531 312,357.6094 312,358.0625 L312,358.1875 L310.5469,358.1875 L310.5469,355.7813 L314.5313,355.7813 L314.5313,356.6406 C314.5313,357.0469 314.5625,357.2188 314.6406,357.375 C314.8125,357.625 315.0938,357.7813 315.375,357.7813 C315.6406,357.7813 315.9063,357.6406 316.0781,357.4219 C316.1875,357.25 316.2188,357.1094 316.2188,356.6406 L316.2188,354.0938 L308.5938,354.0938 C308.1563,354.0938 308.0313,354.1094 307.875,354.2031 C307.625,354.3594 307.4688,354.6563 307.4688,354.9375 C307.4688,355.2188 307.6094,355.4688 307.8281,355.6406 C307.9844,355.75 308.1719,355.7813 308.5938,355.7813 L308.8438,355.7813 L308.8438,362.2969 L308.5938,362.2969 C308.1875,362.2969 308.0313,362.3125 307.875,362.4219 C307.625,362.5938 307.4688,362.8594 307.4688,363.1563 C307.4688,363.4219 307.6094,363.6719 307.8281,363.8281 C307.9688,363.9531 308.2031,364 308.5938,364 L316.5938,364 L316.5938,361.4219 C316.5938,360.9844 316.5625,360.8438 316.4844,360.6875 C316.3125,360.4375 316.0313,360.2813 315.75,360.2813 C315.4844,360.2813 315.2188,360.3906 315.0469,360.6406 C314.9375,360.7969 314.9063,360.9375 314.9063,361.4219 L314.9063,362.2969 L310.5469,362.2969 L310.5469,359.875 Z " fill="#000000"/><text fill="#000000" font-family="sans-serif" font-size="14" lengthAdjust="spacing" textLength="31" x="332.25" y="363.8467">User</text><line style="stroke:#181818;stroke-width:0.5;" x1="228" x2="435" y1="375" y2="375"/><ellipse cx="238" cy="388.6484" fill="#000000" rx="3" ry="3" style="stroke:#000000;stroke-width:1.0;"/><text fill="#000000" font-family="sans-serif" font-size="14" lengthAdjust="spacing" textLength="66" x="247" y="391.9951">id: String</text><text fill="#000000" font-family="sans-serif" font-size="14" lengthAdjust="spacing" textLength="100" x="247" y="408.292">name: String?</text><text fill="#000000" font-family="sans-serif" font-size="14" lengthAdjust="spacing" textLength="99" x="247" y="424.5889">email: String?</text><text fill="#000000" font-family="sans-serif" font-size="14" lengthAdjust="spacing" textLength="183" x="247" y="440.8857">emailVerified: DateTime?</text><text fill="#000000" font-family="sans-serif" font-size="14" lengthAdjust="spacing" textLength="104" x="247" y="457.1826">image: String?</text><ellipse cx="238" cy="470.1328" fill="#000000" rx="3" ry="3" style="stroke:#000000;stroke-width:1.0;"/><text fill="#000000" font-family="sans-serif" font-size="14" lengthAdjust="spacing" textLength="142" x="247" y="473.4795">accounts: Account[]</text><ellipse cx="238" cy="486.4297" fill="#000000" rx="3" ry="3" style="stroke:#000000;stroke-width:1.0;"/><text fill="#000000" font-family="sans-serif" font-size="14" lengthAdjust="spacing" textLength="132" x="247" y="489.7764">sessions: Session[]</text><line style="stroke:#181818;stroke-width:0.5;" x1="228" x2="435" y1="497.0781" y2="497.0781"/></g><!--class VerificationToken--><g id="elem_VerificationToken"><rect codeLine="44" fill="#F1F1F1" height="96.8906" id="VerificationToken" rx="2.5" ry="2.5" style="stroke:#181818;stroke-width:0.5;" width="161" x="684" y="96.5"/><ellipse cx="699" cy="112.5" fill="#ADD1B2" rx="11" ry="11" style="stroke:#181818;stroke-width:1.0;"/><path d="M697.7969,113.375 L699.25,113.375 L699.25,113.4844 C699.25,113.8906 699.2813,114.0469 699.3594,114.2031 C699.5156,114.4531 699.7969,114.6094 700.0938,114.6094 C700.3438,114.6094 700.6094,114.4688 700.7656,114.25 C700.8906,114.0938 700.9219,113.9375 700.9219,113.4844 L700.9219,111.5625 C700.9219,111.4063 700.9219,111.3594 700.9063,111.2031 C700.8438,110.7344 700.5313,110.4219 700.0781,110.4219 C699.8281,110.4219 699.5625,110.5625 699.3906,110.7813 C699.2813,110.9531 699.25,111.1094 699.25,111.5625 L699.25,111.6875 L697.7969,111.6875 L697.7969,109.2813 L701.7813,109.2813 L701.7813,110.1406 C701.7813,110.5469 701.8125,110.7188 701.8906,110.875 C702.0625,111.125 702.3438,111.2813 702.625,111.2813 C702.8906,111.2813 703.1563,111.1406 703.3281,110.9219 C703.4375,110.75 703.4688,110.6094 703.4688,110.1406 L703.4688,107.5938 L695.8438,107.5938 C695.4063,107.5938 695.2813,107.6094 695.125,107.7031 C694.875,107.8594 694.7188,108.1563 694.7188,108.4375 C694.7188,108.7188 694.8594,108.9688 695.0781,109.1406 C695.2344,109.25 695.4219,109.2813 695.8438,109.2813 L696.0938,109.2813 L696.0938,115.7969 L695.8438,115.7969 C695.4375,115.7969 695.2813,115.8125 695.125,115.9219 C694.875,116.0938 694.7188,116.3594 694.7188,116.6563 C694.7188,116.9219 694.8594,117.1719 695.0781,117.3281 C695.2188,117.4531 695.4531,117.5 695.8438,117.5 L703.8438,117.5 L703.8438,114.9219 C703.8438,114.4844 703.8125,114.3438 703.7344,114.1875 C703.5625,113.9375 703.2813,113.7813 703,113.7813 C702.7344,113.7813 702.4688,113.8906 702.2969,114.1406 C702.1875,114.2969 702.1563,114.4375 702.1563,114.9219 L702.1563,115.7969 L697.7969,115.7969 L697.7969,113.375 Z " fill="#000000"/><text fill="#000000" font-family="sans-serif" font-size="14" lengthAdjust="spacing" textLength="129" x="713" y="117.3467">VerificationToken</text><line style="stroke:#181818;stroke-width:0.5;" x1="685" x2="844" y1="128.5" y2="128.5"/><ellipse cx="695" cy="142.1484" fill="#000000" rx="3" ry="3" style="stroke:#000000;stroke-width:1.0;"/><text fill="#000000" font-family="sans-serif" font-size="14" lengthAdjust="spacing" textLength="120" x="704" y="145.4951">identifier: String</text><ellipse cx="695" cy="158.4453" fill="#000000" rx="3" ry="3" style="stroke:#000000;stroke-width:1.0;"/><text fill="#000000" font-family="sans-serif" font-size="14" lengthAdjust="spacing" textLength="96" x="704" y="161.792">token: String</text><ellipse cx="695" cy="174.7422" fill="#000000" rx="3" ry="3" style="stroke:#000000;stroke-width:1.0;"/><text fill="#000000" font-family="sans-serif" font-size="14" lengthAdjust="spacing" textLength="133" x="704" y="178.0889">expires: DateTime</text><line style="stroke:#181818;stroke-width:0.5;" x1="685" x2="844" y1="185.3906" y2="185.3906"/></g><!--link Account to User--><g id="link_Account_User"><path codeLine="50" d="M296.667,291.274 C296.667,291.274 296.667,334.879 296.667,334.879 " fill="none" id="Account-User" style="stroke:#181818;stroke-width:1.0;stroke-dasharray:7.0,7.0;"/><line style="stroke:#181818;stroke-width:1.0;" x1="296.667" x2="290.667" y1="291.274" y2="283.274"/><line style="stroke:#181818;stroke-width:1.0;" x1="296.667" x2="302.667" y1="291.274" y2="283.274"/><line style="stroke:#181818;stroke-width:1.0;" x1="296.667" x2="296.667" y1="291.274" y2="283.274"/><line style="stroke:#181818;stroke-width:1.0;" x1="292.667" x2="300.667" y1="293.274" y2="293.274"/><line style="stroke:#181818;stroke-width:1.0;" x1="300.667" x2="292.667" y1="338.879" y2="338.879"/><line style="stroke:#181818;stroke-width:1.0;" x1="300.667" x2="292.667" y1="335.879" y2="335.879"/><line style="stroke:#181818;stroke-width:1.0;" x1="296.667" x2="296.667" y1="334.879" y2="342.879"/></g><!--link Account to User--><g id="link_Account_User"><path codeLine="52" d="M366.333,291.274 C366.333,291.274 366.333,334.879 366.333,334.879 " fill="none" id="Account-User-1" style="stroke:#181818;stroke-width:1.0;stroke-dasharray:7.0,7.0;"/><line style="stroke:#181818;stroke-width:1.0;" x1="366.333" x2="360.333" y1="291.274" y2="283.274"/><line style="stroke:#181818;stroke-width:1.0;" x1="366.333" x2="372.333" y1="291.274" y2="283.274"/><line style="stroke:#181818;stroke-width:1.0;" x1="366.333" x2="366.333" y1="291.274" y2="283.274"/><line style="stroke:#181818;stroke-width:1.0;" x1="362.333" x2="370.333" y1="293.274" y2="293.274"/><line style="stroke:#181818;stroke-width:1.0;" x1="370.333" x2="362.333" y1="338.879" y2="338.879"/><line style="stroke:#181818;stroke-width:1.0;" x1="370.333" x2="362.333" y1="335.879" y2="335.879"/><line style="stroke:#181818;stroke-width:1.0;" x1="366.333" x2="366.333" y1="334.879" y2="342.879"/></g><!--link Session to User--><g id="link_Session_User"><path codeLine="51" d="M560.5,217.709 C560.5,217.709 560.5,424 560.5,424 C560.5,424 444.282,424 444.282,424 " fill="none" id="Session-User" style="stroke:#181818;stroke-width:1.0;stroke-dasharray:7.0,7.0;"/><line style="stroke:#181818;stroke-width:1.0;" x1="560.5" x2="554.5" y1="217.709" y2="209.709"/><line style="stroke:#181818;stroke-width:1.0;" x1="560.5" x2="566.5" y1="217.709" y2="209.709"/><line style="stroke:#181818;stroke-width:1.0;" x1="560.5" x2="560.5" y1="217.709" y2="209.709"/><line style="stroke:#181818;stroke-width:1.0;" x1="556.5" x2="564.5" y1="219.709" y2="219.709"/><line style="stroke:#181818;stroke-width:1.0;" x1="440.282" x2="440.282" y1="428" y2="420"/><line style="stroke:#181818;stroke-width:1.0;" x1="443.282" x2="443.282" y1="428" y2="420"/><line style="stroke:#181818;stroke-width:1.0;" x1="444.282" x2="436.282" y1="424" y2="424"/></g><!--SRC=[TPBBRiCW44Nt_WhMMUG3lAaYjOkiatPJLHQ2IJAAUGZ6LQ8w_rxmAwRGZMKESE_C7VmLjUMEAzQY1hfROCRHnLGLQ4AwixSRLxO5zbCnjc4eQtOWX_eyB8K3JY1tLBFNy7D41GFlhCpuOv7S2M4wJMN9peFRfoXMbG3hp3TAS4KugISQ3auE_AKXSmKzyvUmmOK0xtCEDulXHiD31tjD4GrdcdKjaNfXKe0oL_F10urkF8KmKXjgPYlKYzMOGitUmtULss6KAUSsUHpNtly5Ebd-7Lh9CovBXfghj1F5iSt01pWy8SYdqn2HukVayYRE8Gujb3IDx_DhtLNWK_E1FuiRvGMdkV6bqdWW6ASlXB9iyY22-Fmy7_rss_TZ87FqQrOuzmi0]--></g></svg>