<svg xmlns="http://www.w3.org/2000/svg" xmlns:xlink="http://www.w3.org/1999/xlink" width="1920" zoomAndPan="magnify" viewBox="0 0 1440 809.999993" height="1080" preserveAspectRatio="xMidYMid meet" version="1.0"><defs><g/><clipPath id="73516a7f4b"><path d="M 341 312 L 629.25 312 L 629.25 402 L 341 402 Z M 341 312 " clip-rule="nonzero"/></clipPath><clipPath id="8b2a4ec2bd"><path d="M 384 609 L 496 609 L 496 672.75 L 384 672.75 Z M 384 609 " clip-rule="nonzero"/></clipPath></defs><path fill="#47d6ac" d="M 86.074219 559.761719 C 80.464844 550.316406 84.773438 538.117188 97.242188 524.421875 L 82.402344 476.511719 C 47.121094 526.101562 86.074219 559.761719 86.074219 559.761719 " fill-opacity="1" fill-rule="nonzero"/><path fill="#06031e" d="M 116.070312 507.300781 C 138.289062 489.875 171.003906 471.035156 211.300781 452.859375 L 194.519531 398.65625 C 156.363281 416.984375 123.59375 437.023438 100.652344 457.515625 L 116.070312 507.300781 " fill-opacity="1" fill-rule="nonzero"/><path fill="#06031e" d="M 290.234375 477.523438 C 250.613281 493.398438 214.550781 511.457031 186.972656 529.984375 L 201.683594 577.492188 C 227.023438 560.726562 262.761719 543.039062 305.527344 526.917969 L 290.234375 477.523438 " fill-opacity="1" fill-rule="nonzero"/><path fill="#47d6ac" d="M 393.351562 589.847656 L 380.414062 548.074219 C 350.167969 557.726562 319.925781 570.132812 292.664062 584.996094 C 291.449219 585.660156 290.238281 586.328125 289.035156 587.003906 L 301.300781 626.609375 C 325.199219 613.613281 357.15625 600.449219 393.351562 589.847656 " fill-opacity="1" fill-rule="nonzero"/><path fill="#47d6ac" d="M 170.746094 243.96875 C 198.714844 232.03125 229.988281 220.503906 263.671875 210.039062 L 251.648438 171.21875 C 219.417969 181.59375 187.917969 193.824219 159.417969 207.386719 L 170.746094 243.96875 " fill-opacity="1" fill-rule="nonzero"/><path fill="#47d6ac" d="M 115.539062 377.226562 C 149.210938 358.175781 192.296875 338.707031 241.75 320.964844 L 225.480469 268.414062 C 178.117188 285.949219 134.441406 306.597656 100.613281 329.027344 L 115.539062 377.226562 " fill-opacity="1" fill-rule="nonzero"/><path fill="#47d6ac" d="M 232.574219 443.625 C 263.867188 430.554688 298.953125 418.019531 336.683594 406.84375 L 319.242188 350.519531 C 283.292969 361.609375 247.964844 374.632812 215.636719 388.933594 L 232.574219 443.625 " fill-opacity="1" fill-rule="nonzero"/><path fill="#06031e" d="M 368.957031 227.246094 C 328.800781 235.632812 287.070312 247.023438 247.214844 260.671875 L 263.539062 313.398438 C 301.269531 300.726562 342.214844 289.164062 385.15625 279.558594 L 368.957031 227.246094 " fill-opacity="1" fill-rule="nonzero"/><path fill="#06031e" d="M 285.757812 203.429688 C 312.378906 195.769531 340.300781 188.8125 369.113281 182.859375 C 437.023438 169.828125 524.417969 159.996094 555.117188 187.199219 C 555.117188 187.199219 539.894531 145.964844 477.050781 137.101562 C 427.894531 130.175781 350.152344 142.039062 273.683594 164.445312 L 285.757812 203.429688 " fill-opacity="1" fill-rule="nonzero"/><path fill="#06031e" d="M 288.207031 91.386719 C 314.40625 86.40625 329.804688 84.960938 349.238281 85.644531 C 340.003906 85.035156 339.34375 85.042969 322.46875 85.066406 C 314.800781 85.265625 314.015625 85.324219 300.90625 86.367188 C 294.945312 86.941406 294.519531 87.007812 283.648438 88.539062 C 278.632812 89.320312 278.269531 89.394531 268.925781 91.210938 C 264.445312 92.132812 264.28125 92.179688 255.667969 94.265625 C 251.453125 95.339844 251.296875 95.386719 243.132812 97.746094 C 238.976562 99 238.976562 99 230.707031 101.792969 C 226.390625 103.300781 226.390625 103.300781 217.761719 106.660156 C 213.003906 108.574219 213.003906 108.574219 203.53125 112.820312 C 179.523438 123.917969 162.113281 136.207031 151.714844 143.550781 C 163.023438 135.632812 206.300781 108.460938 288.207031 91.386719 " fill-opacity="1" fill-rule="nonzero"/><path fill="#06031e" d="M 149.53125 253.398438 L 138.523438 217.851562 C 30.707031 268.414062 33.132812 340.769531 33.132812 340.769531 C 38.144531 317.40625 82.089844 284.589844 149.53125 253.398438 " fill-opacity="1" fill-rule="nonzero"/><path fill="#06031e" d="M 95.183594 389.417969 L 80.878906 343.222656 C -0.0273438 395.429688 38.132812 454.640625 38.132812 454.640625 C 34.523438 437.832031 55.933594 414.398438 95.183594 389.417969 " fill-opacity="1" fill-rule="nonzero"/><g clip-path="url(#73516a7f4b)"><path fill="#06031e" d="M 600.613281 323.203125 C 551.046875 302.03125 445.609375 314.335938 341.339844 343.976562 L 358.851562 400.519531 C 382.386719 394.070312 406.808594 388.167969 431.875 383.015625 C 550.421875 360.144531 625.9375 367.097656 628.945312 401.164062 L 629.1875 395.734375 C 629.234375 382.65625 628.507812 365.214844 627.59375 352.167969 C 626.097656 345.011719 623.589844 333.019531 600.613281 323.203125 " fill-opacity="1" fill-rule="nonzero"/></g><path fill="#47d6ac" d="M 407.796875 274.746094 C 522.632812 252.84375 597.300781 257.117188 612.773438 286.519531 C 608.871094 252.003906 586.164062 231.699219 583.195312 229.253906 C 555.253906 206.265625 478.949219 206.816406 391.703125 222.785156 L 407.796875 274.746094 " fill-opacity="1" fill-rule="nonzero"/><path fill="#47d6ac" d="M 618.800781 457.59375 C 618.800781 422.429688 550.703125 421.167969 520.335938 422.421875 C 459.554688 424.933594 381.730469 443.421875 311.796875 469.234375 L 327.234375 519.085938 C 362.589844 506.878906 401.9375 495.886719 443.640625 487.335938 C 532.5 470.140625 615.828125 470.644531 601.679688 510.523438 C 601.679688 510.523438 618.800781 483.476562 618.800781 457.59375 " fill-opacity="1" fill-rule="nonzero"/><path fill="#06031e" d="M 402.511719 541.503906 L 415.609375 583.804688 C 423.851562 581.742188 432.25 579.820312 440.777344 578.082031 C 457.324219 574.859375 482.117188 570.632812 506.371094 571.0625 C 520.453125 571.316406 564 574.515625 533.015625 605.066406 C 533.015625 605.066406 563.554688 589.515625 572.550781 555.800781 C 582.796875 517.410156 496.066406 515.71875 402.511719 541.503906 " fill-opacity="1" fill-rule="nonzero"/><g clip-path="url(#8b2a4ec2bd)"><path fill="#47d6ac" d="M 384.964844 627.585938 L 393.128906 653.953125 C 402.136719 650.433594 412.5 647.324219 423.097656 645.25 C 444.886719 640.824219 451.976562 644.050781 453.636719 645.152344 C 460.890625 649.949219 445.351562 662.460938 411.460938 672.734375 C 452.421875 662.214844 492.515625 638.722656 495.589844 623.449219 C 500.085938 601.0625 436.621094 606.910156 384.964844 627.585938 " fill-opacity="1" fill-rule="nonzero"/></g><path fill="#06031e" d="M 202.734375 156 C 231.933594 145.109375 264.808594 134.960938 300.332031 126.429688 L 293.128906 103.167969 C 260.535156 110.472656 226.808594 121.277344 196.007812 134.285156 L 202.734375 156 " fill-opacity="1" fill-rule="nonzero"/><path fill="#47d6ac" d="M 322.878906 121.3125 C 324.761719 120.910156 326.644531 120.511719 328.539062 120.117188 C 426.613281 101.359375 456.085938 113.714844 465.773438 117.777344 C 465.773438 117.777344 416.617188 80.976562 315.851562 98.617188 L 322.878906 121.3125 " fill-opacity="1" fill-rule="nonzero"/><path fill="#47d6ac" d="M 181.210938 164.433594 L 174.828125 143.804688 C 105.792969 177.410156 72.441406 231.007812 72.441406 231.007812 C 72.441406 231.007812 123.109375 188.320312 181.210938 164.433594 " fill-opacity="1" fill-rule="nonzero"/><g fill="#000000" fill-opacity="1"><g transform="translate(690.320011, 406.977111)"><g><path d="M 41.328125 0 L 29.953125 0 L 29.953125 -66.546875 L 1.46875 -66.546875 L 1.46875 -77.578125 L 70.703125 -77.578125 L 70.703125 -66.546875 L 41.328125 -66.546875 Z M 41.328125 0 "/></g></g></g><g fill="#000000" fill-opacity="1"><g transform="translate(771.83441, 406.977111)"><g><path d="M 65.875 0 L 9.578125 0 L 9.578125 -77.578125 L 63.953125 -77.578125 L 63.953125 -66.4375 L 20.9375 -66.4375 L 20.9375 -45.9375 L 61.46875 -45.9375 L 61.46875 -34.796875 L 20.9375 -34.796875 L 20.9375 -11.140625 L 65.875 -11.140625 Z M 65.875 0 "/></g></g></g><g fill="#000000" fill-opacity="1"><g transform="translate(851.322214, 406.977111)"><g><path d="M 13.171875 0 L 0.5625 0 L 36.375 -77.578125 L 47.859375 -77.578125 L 83.4375 0 L 70.265625 0 L 60.125 -22.40625 L 23.421875 -22.40625 Z M 27.46875 -31.640625 L 56.078125 -31.640625 C 50.296875 -44.703125 45.601562 -55.660156 42 -64.515625 Z M 27.46875 -31.640625 "/></g></g></g><g fill="#000000" fill-opacity="1"><g transform="translate(944.658472, 406.977111)"><g><path d="M 20.9375 0 L 9.578125 0 L 9.578125 -77.578125 L 22.296875 -77.578125 C 38.285156 -52.734375 48.34375 -36.859375 52.46875 -29.953125 C 57.050781 -37.535156 67.144531 -53.410156 82.75 -77.578125 L 94.796875 -77.578125 L 94.796875 0 L 83.3125 0 C 83.3125 -34.53125 83.425781 -54.722656 83.65625 -60.578125 L 56.078125 -17.109375 L 47.859375 -17.109375 L 20.609375 -60.6875 C 20.828125 -53.175781 20.9375 -32.945312 20.9375 0 Z M 20.9375 0 "/></g></g></g><g fill="#000000" fill-opacity="1"><g transform="translate(1058.373287, 406.977111)"><g><path d="M 62.9375 0 L 9.578125 0 L 9.578125 -77.578125 L 20.9375 -77.578125 L 20.9375 -11.140625 L 62.9375 -11.140625 Z M 62.9375 0 "/></g></g></g><g fill="#000000" fill-opacity="1"><g transform="translate(1134.708576, 406.977111)"><g><path d="M 20.9375 0 L 9.578125 0 L 9.578125 -77.578125 L 20.9375 -77.578125 Z M 20.9375 0 "/></g></g></g><g fill="#000000" fill-opacity="1"><g transform="translate(1174.565049, 406.977111)"><g><path d="M 20.9375 0 L 9.578125 0 L 9.578125 -77.578125 L 22.40625 -77.578125 C 26.007812 -73.367188 29.929688 -68.75 34.171875 -63.71875 C 38.410156 -58.695312 41.617188 -54.910156 43.796875 -52.359375 C 45.972656 -49.804688 48.410156 -46.953125 51.109375 -43.796875 C 53.816406 -40.640625 55.804688 -38.289062 57.078125 -36.75 C 58.359375 -35.21875 59.785156 -33.515625 61.359375 -31.640625 C 62.941406 -29.765625 64.160156 -28.28125 65.015625 -27.1875 C 65.878906 -26.101562 66.757812 -24.976562 67.65625 -23.8125 C 68.5625 -22.644531 69.46875 -21.460938 70.375 -20.265625 C 70.070312 -32.578125 69.921875 -51.679688 69.921875 -77.578125 L 81.296875 -77.578125 L 81.296875 0 L 72.0625 0 L 20.609375 -61.921875 C 20.828125 -49.765625 20.9375 -29.125 20.9375 0 Z M 20.9375 0 "/></g></g></g><g fill="#000000" fill-opacity="1"><g transform="translate(1274.769216, 406.977111)"><g><path d="M 64.96875 0 L 34.453125 -40.078125 L 20.9375 -27.578125 L 20.9375 0 L 9.578125 0 L 9.578125 -77.578125 L 20.9375 -77.578125 L 20.9375 -40.765625 L 59.109375 -77.578125 L 75.09375 -77.578125 L 42.890625 -47.859375 L 79.828125 0 Z M 64.96875 0 "/></g></g></g><g fill="#000000" fill-opacity="1"><g transform="translate(1364.052243, 406.977111)"><g><path d="M 4.390625 -6.421875 L 4.390625 -19.140625 L 4.84375 -19.140625 C 8.96875 -15.691406 13.828125 -13.160156 19.421875 -11.546875 C 25.015625 -9.929688 30.398438 -9.125 35.578125 -9.125 C 42.109375 -9.125 47.023438 -9.929688 50.328125 -11.546875 C 53.628906 -13.160156 55.28125 -15.992188 55.28125 -20.046875 C 55.28125 -23.117188 53.832031 -25.535156 50.9375 -27.296875 C 48.050781 -29.066406 42.96875 -30.890625 35.6875 -32.765625 L 25.453125 -35.46875 C 12.234375 -39 5.625 -45.976562 5.625 -56.40625 C 5.625 -63.007812 8.585938 -68.46875 14.515625 -72.78125 C 20.453125 -77.101562 28.523438 -79.265625 38.734375 -79.265625 C 42.929688 -79.265625 47.5625 -78.660156 52.625 -77.453125 C 57.695312 -76.253906 61.25 -74.832031 63.28125 -73.1875 L 63.28125 -60.578125 L 62.828125 -60.578125 C 56.296875 -65.898438 47.4375 -68.5625 36.25 -68.5625 C 23.863281 -68.5625 17.671875 -64.921875 17.671875 -57.640625 C 17.671875 -54.796875 18.703125 -52.507812 20.765625 -50.78125 C 22.835938 -49.050781 26.910156 -47.363281 32.984375 -45.71875 L 44.921875 -42.453125 C 52.878906 -40.273438 58.601562 -37.535156 62.09375 -34.234375 C 65.582031 -30.929688 67.328125 -26.726562 67.328125 -21.625 C 67.328125 -14.9375 64.625 -9.394531 59.21875 -5 C 53.820312 -0.613281 45.566406 1.578125 34.453125 1.578125 C 29.046875 1.578125 23.546875 0.898438 17.953125 -0.453125 C 12.367188 -1.804688 7.847656 -3.796875 4.390625 -6.421875 Z M 4.390625 -6.421875 "/></g></g></g></svg>