<svg xmlns="http://www.w3.org/2000/svg" xmlns:xlink="http://www.w3.org/1999/xlink" width="500" zoomAndPan="magnify" viewBox="0 0 375 374.999991" height="500" preserveAspectRatio="xMidYMid meet" version="1.0"><defs><clipPath id="8a07c299f9"><path d="M 229 314 L 296 314 L 296 352.5 L 229 352.5 Z M 229 314 " clip-rule="nonzero"/></clipPath></defs><path fill="#47d6ac" d="M 51.296875 285.191406 C 47.953125 279.566406 50.519531 272.300781 57.949219 264.140625 L 49.109375 235.601562 C 28.082031 265.140625 51.296875 285.191406 51.296875 285.191406 " fill-opacity="1" fill-rule="nonzero"/><path fill="#06031e" d="M 69.171875 253.941406 C 82.414062 243.5625 101.910156 232.339844 125.925781 221.511719 L 115.921875 189.222656 C 93.183594 200.144531 73.65625 212.082031 59.984375 224.285156 L 69.171875 253.941406 " fill-opacity="1" fill-rule="nonzero"/><path fill="#06031e" d="M 172.964844 236.207031 C 149.351562 245.660156 127.859375 256.417969 111.425781 267.453125 L 120.195312 295.753906 C 135.292969 285.769531 156.589844 275.230469 182.078125 265.628906 L 172.964844 236.207031 " fill-opacity="1" fill-rule="nonzero"/><path fill="#47d6ac" d="M 234.417969 303.113281 L 226.707031 278.230469 C 208.679688 283.980469 190.660156 291.371094 174.410156 300.226562 C 173.6875 300.621094 172.96875 301.019531 172.25 301.421875 L 179.558594 325.015625 C 193.800781 317.269531 212.84375 309.429688 234.417969 303.113281 " fill-opacity="1" fill-rule="nonzero"/><path fill="#47d6ac" d="M 101.753906 97.078125 C 118.425781 89.96875 137.058594 83.101562 157.132812 76.867188 L 149.96875 53.742188 C 130.761719 59.925781 111.988281 67.210938 95.003906 75.289062 L 101.753906 97.078125 " fill-opacity="1" fill-rule="nonzero"/><path fill="#47d6ac" d="M 68.855469 176.460938 C 88.921875 165.109375 114.597656 153.515625 144.070312 142.945312 L 134.375 111.640625 C 106.148438 122.085938 80.121094 134.386719 59.960938 147.75 L 68.855469 176.460938 " fill-opacity="1" fill-rule="nonzero"/><path fill="#47d6ac" d="M 138.601562 216.011719 C 157.25 208.226562 178.160156 200.757812 200.644531 194.101562 L 190.25 160.550781 C 168.828125 167.15625 147.773438 174.914062 128.507812 183.433594 L 138.601562 216.011719 " fill-opacity="1" fill-rule="nonzero"/><path fill="#06031e" d="M 219.878906 87.117188 C 195.949219 92.113281 171.078125 98.898438 147.328125 107.03125 L 157.054688 138.4375 C 179.542969 130.886719 203.941406 124 229.53125 118.28125 L 219.878906 87.117188 " fill-opacity="1" fill-rule="nonzero"/><path fill="#06031e" d="M 170.296875 72.929688 C 186.160156 68.371094 202.800781 64.222656 219.972656 60.679688 C 260.441406 52.914062 312.523438 47.058594 330.820312 63.265625 C 330.820312 63.265625 321.75 38.699219 284.296875 33.421875 C 255 29.292969 208.671875 36.363281 163.101562 49.707031 L 170.296875 72.929688 " fill-opacity="1" fill-rule="nonzero"/><path fill="#06031e" d="M 171.753906 6.1875 C 187.371094 3.222656 196.546875 2.359375 208.128906 2.769531 C 202.625 2.402344 202.230469 2.410156 192.175781 2.425781 C 187.605469 2.542969 187.136719 2.578125 179.324219 3.199219 C 175.773438 3.539062 175.515625 3.582031 169.039062 4.492188 C 166.050781 4.957031 165.832031 5.003906 160.265625 6.085938 C 157.59375 6.632812 157.5 6.660156 152.363281 7.90625 C 149.851562 8.542969 149.761719 8.574219 144.894531 9.976562 C 142.417969 10.722656 142.417969 10.722656 137.488281 12.386719 C 134.914062 13.285156 134.914062 13.285156 129.773438 15.289062 C 126.9375 16.425781 126.9375 16.425781 121.292969 18.957031 C 106.988281 25.566406 96.609375 32.886719 90.414062 37.261719 C 97.152344 32.542969 122.945312 16.359375 171.753906 6.1875 " fill-opacity="1" fill-rule="nonzero"/><path fill="#06031e" d="M 89.113281 102.695312 L 82.554688 81.523438 C 18.300781 111.640625 19.746094 154.742188 19.746094 154.742188 C 22.730469 140.828125 48.921875 121.277344 89.113281 102.695312 " fill-opacity="1" fill-rule="nonzero"/><path fill="#06031e" d="M 56.722656 183.722656 L 48.199219 156.203125 C -0.015625 187.304688 22.726562 222.574219 22.726562 222.574219 C 20.574219 212.5625 33.335938 198.601562 56.722656 183.722656 " fill-opacity="1" fill-rule="nonzero"/><path fill="#06031e" d="M 357.933594 144.277344 C 328.394531 131.664062 265.558594 138.996094 203.421875 156.652344 L 213.855469 190.335938 C 227.882812 186.492188 242.4375 182.976562 257.375 179.90625 C 328.023438 166.285156 373.023438 170.425781 374.820312 190.71875 L 374.964844 187.484375 C 374.992188 179.695312 374.558594 169.304688 374.011719 161.535156 C 373.121094 157.269531 371.628906 150.125 357.933594 144.277344 " fill-opacity="1" fill-rule="nonzero"/><path fill="#47d6ac" d="M 243.027344 115.414062 C 311.460938 102.367188 355.960938 104.910156 365.179688 122.425781 C 362.855469 101.867188 349.324219 89.773438 347.554688 88.3125 C 330.902344 74.621094 285.429688 74.949219 233.433594 84.460938 L 243.027344 115.414062 " fill-opacity="1" fill-rule="nonzero"/><path fill="#47d6ac" d="M 368.773438 224.332031 C 368.773438 203.386719 328.191406 202.632812 310.09375 203.382812 C 273.871094 204.878906 227.492188 215.890625 185.8125 231.265625 L 195.015625 260.964844 C 216.085938 253.691406 239.535156 247.144531 264.386719 242.050781 C 317.34375 231.804688 367 232.105469 358.570312 255.863281 C 358.570312 255.863281 368.773438 239.75 368.773438 224.332031 " fill-opacity="1" fill-rule="nonzero"/><path fill="#06031e" d="M 239.875 274.316406 L 247.679688 299.515625 C 252.59375 298.285156 257.597656 297.140625 262.679688 296.105469 C 272.542969 294.1875 287.316406 291.667969 301.769531 291.925781 C 310.164062 292.074219 336.113281 293.980469 317.648438 312.179688 C 317.648438 312.179688 335.847656 302.917969 341.210938 282.835938 C 347.316406 259.964844 295.628906 258.957031 239.875 274.316406 " fill-opacity="1" fill-rule="nonzero"/><g clip-path="url(#8a07c299f9)"><path fill="#47d6ac" d="M 229.417969 325.59375 L 234.285156 341.300781 C 239.652344 339.207031 245.828125 337.351562 252.144531 336.117188 C 265.128906 333.480469 269.355469 335.402344 270.34375 336.058594 C 274.664062 338.917969 265.40625 346.367188 245.207031 352.488281 C 269.621094 346.222656 293.511719 332.226562 295.34375 323.128906 C 298.027344 309.796875 260.203125 313.277344 229.417969 325.59375 " fill-opacity="1" fill-rule="nonzero"/></g><path fill="#06031e" d="M 120.816406 44.675781 C 138.21875 38.191406 157.8125 32.144531 178.984375 27.0625 L 174.691406 13.207031 C 155.265625 17.558594 135.164062 23.996094 116.8125 31.742188 L 120.816406 44.675781 " fill-opacity="1" fill-rule="nonzero"/><path fill="#47d6ac" d="M 192.417969 24.015625 C 193.539062 23.773438 194.664062 23.535156 195.792969 23.304688 C 254.238281 12.128906 271.804688 19.488281 277.578125 21.910156 C 277.578125 21.910156 248.28125 -0.0117188 188.230469 10.496094 L 192.417969 24.015625 " fill-opacity="1" fill-rule="nonzero"/><path fill="#47d6ac" d="M 107.992188 49.703125 L 104.1875 37.414062 C 63.046875 57.433594 43.171875 89.359375 43.171875 89.359375 C 43.171875 89.359375 73.367188 63.933594 107.992188 49.703125 " fill-opacity="1" fill-rule="nonzero"/></svg>